HIERARCHY
ROOT Hips
{
	OFFSET 0.00000 0.00000 0.00000
	CHANNELS 6 Xposition Yposition Zposition Zrotation Yrotation Xrotation 
	JOINT LHipJoint
	{
		OFFSET 0 0 0
		CHANNELS 3 Zrotation Yrotation Xrotation
		JOINT LeftHip
		{
			OFFSET 1.39187 -1.60231 0.69152
			CHANNELS 3 Zrotation Yrotation Xrotation
			JOINT LeftKnee
			{
				OFFSET 2.43314 -6.68499 0.00000
				CHANNELS 3 Zrotation Yrotation Xrotation
				JOINT LeftAnkle
				{
					OFFSET 2.32059 -6.37578 0.00000
					CHANNELS 3 Zrotation Yrotation Xrotation
					JOINT LeftToe
					{
						OFFSET 0.23021 -0.63250 1.71305
						CHANNELS 3 Zrotation Yrotation Xrotation
						End Site
						{
							OFFSET 0.00000 -0.00000 0.91647
						}
					}
				}
			}
		}
	}
	JOINT RHipJoint
	{
		OFFSET 0 0 0
		CHANNELS 3 Zrotation Yrotation Xrotation
		JOINT RightHip
		{
			OFFSET -1.19407 -1.60231 0.69152
			CHANNELS 3 Zrotation Yrotation Xrotation
			JOINT RightKnee
			{
				OFFSET -2.44411 -6.71513 0.00000
				CHANNELS 3 Zrotation Yrotation Xrotation
				JOINT RightAnkle
				{
					OFFSET -2.31924 -6.37207 0.00000
					CHANNELS 3 Zrotation Yrotation Xrotation
					JOINT RightToe
					{
						OFFSET -0.19473 -0.53502 1.87724
						CHANNELS 3 Zrotation Yrotation Xrotation
						End Site
						{
							OFFSET -0.00000 -0.00000 0.98293
						}
					}
				}
			}
		}
	}
	JOINT lowerback
	{
		OFFSET 0 0 0
		CHANNELS 3 Zrotation Yrotation Xrotation
		JOINT Chest
		{
			OFFSET -0.01120 1.87307 0.09613
			CHANNELS 3 Zrotation Yrotation Xrotation
			JOINT Chest2
			{
				OFFSET 0.01099 1.87818 0.04834
				CHANNELS 3 Zrotation Yrotation Xrotation
				JOINT lowerneck
				{
					OFFSET 0 0 0
					CHANNELS 3 Zrotation Yrotation Xrotation
					JOINT Neck
					{
						OFFSET 0.01702 1.40324 -0.12579
						CHANNELS 3 Zrotation Yrotation Xrotation
						JOINT Head
						{
							OFFSET -0.04239 1.38587 -0.01614
							CHANNELS 3 Zrotation Yrotation Xrotation
							End Site
							{
								OFFSET -0.02510 1.47031 -0.00154
							}
						}
					}
				}
				JOINT LeftCollar
				{
					OFFSET 0 0 0
					CHANNELS 3 Zrotation Yrotation Xrotation
					JOINT LeftShoulder
					{
						OFFSET 2.95699 0.62343 0.11653
CHANNELS 3 Zrotation Xrotation Yrotation
						JOINT LeftElbow
						{
OFFSET 0 -4.683820 -0.000000
CHANNELS 3 Zrotation Xrotation Yrotation
							JOINT LeftWrist
							{
OFFSET 0 -2.981240 -0.000000
CHANNELS 3 Zrotation Xrotation Yrotation
								JOINT lhand
								{
									OFFSET 0 0 0
CHANNELS 3 Zrotation Xrotation Yrotation
									JOINT LFingers
									{
OFFSET 0 -0.707590 0.000000
CHANNELS 3 Zrotation Xrotation Yrotation
										End Site
										{
OFFSET 0 -0.570480 0.000000
										}
									}
								}
								JOINT LThumb
								{
OFFSET 0 0.000000 0.000000
CHANNELS 3 Zrotation Xrotation Yrotation
									End Site
									{
OFFSET 0 -0.579190 0.579190
									}
								}
							}
						}
					}
				}
				JOINT RightCollar
				{
					OFFSET 0 0 0
					CHANNELS 3 Zrotation Yrotation Xrotation
					JOINT RightShoulder
					{
						OFFSET -2.99027 0.88714 -0.02793
CHANNELS 3 Zrotation Xrotation Yrotation
						JOINT RightElbow
						{
OFFSET 0 -4.758760 -0.000000
CHANNELS 3 Zrotation Xrotation Yrotation
							JOINT RightWrist
							{
OFFSET 0 -2.932930 -0.000000
CHANNELS 3 Zrotation Xrotation Yrotation
								JOINT rhand
								{
									OFFSET 0 0 0
CHANNELS 3 Zrotation Xrotation Yrotation
									JOINT RFingers
									{
OFFSET 0 -0.831750 0.000000
CHANNELS 3 Zrotation Xrotation Yrotation
										End Site
										{
OFFSET 0 -0.670580 0.000000
										}
									}
								}
								JOINT RThumb
								{
OFFSET 0 0.000000 0.000000
CHANNELS 3 Zrotation Xrotation Yrotation
									End Site
									{
OFFSET 0 -0.680820 0.680820
									}
								}
							}
						}
					}
				}
			}
		}
	}
}
MOTION
Frames: 7
Frame Time: 0.008333333333333333
26.043730 12.401813 -0.892657 -408.280918 -89.233109 104.664661 0.000000 0.000000 0.000000 -22.423234 -10.057743 -2.795627 0.477280 4.430494 12.291127 1.533726 -0.256102 23.515640 0.495329 4.497020 12.481784 0.000000 0.000000 0.000000 5.574892 28.480945 -90.395096 -24.308816 -19.548926 102.689830 -2.317755 0.038081 -28.837030 -1.279959 7.169576 -20.218728 -2.117652 -3.052151 0.361167 1.400655 -4.070089 1.354209 2.575656 -2.067188 1.436723 -9.385181 3.413382 -15.003927 11.764668 4.897729 10.571630 5.676303 2.860677 5.081098 0.000000 0.000000 0.000000 33.932007 -35.655384 -43.174695 43.045487 -49.774159 20.735479 84.000123 93.197479 -29.958884 0.000000 0.000000 0.000000 -7.125000 0.000000 0.000000 118.215461 -65.077431 144.182729 0.000000 0.000000 0.000000 -14.141517 -38.923893 62.800937 -40.126449 -48.144615 -18.533366 -90.770708 106.313110 44.567480 0.000000 0.000000 0.000000 7.125000 0.000000 0.000000 -24.454944 -57.766657 -34.124868
25.874092 12.420491 -0.904296 -394.647434 -89.043891 90.974390 0.000000 0.000000 0.000000 -22.245599 -9.747875 -3.030832 0.496118 4.515617 12.531916 1.863799 0.245024 25.767440 0.479294 4.432395 12.297543 0.000000 0.000000 0.000000 6.293133 28.277522 -89.107493 -24.184331 -19.574918 102.318019 -2.311878 0.013950 -28.807707 -1.410022 7.510130 -21.235878 -2.087974 -3.064521 0.402094 1.476355 -4.088241 1.397562 2.637341 -2.077320 1.463040 -9.452262 3.328075 -15.164701 11.931124 4.779036 10.662065 5.742665 2.815229 5.143368 0.000000 0.000000 0.000000 33.729391 -35.748919 -43.543112 42.649669 -49.563642 20.433740 84.393578 93.750523 -29.664998 0.000000 0.000000 0.000000 -7.125000 0.000000 0.000000 118.652184 -64.709971 144.996637 0.000000 0.000000 0.000000 -14.274787 -38.666252 62.897417 -39.761134 -47.927064 -18.261946 -91.186295 106.724674 44.643542 0.000000 0.000000 0.000000 7.125000 0.000000 0.000000 -24.639748 -58.172806 -34.315713
25.698878 12.436678 -0.912020 -388.014316 -88.841219 84.444058 0.000000 0.000000 0.000000 -22.046486 -9.456889 -3.653635 0.541535 4.714650 13.096451 2.173682 0.639865 27.731424 0.316290 3.611162 9.985600 0.000000 0.000000 0.000000 6.964076 27.962010 -88.037648 -24.016099 -19.608770 101.816191 -2.326479 0.653216 -28.703712 -1.347525 7.348314 -20.751905 -2.004193 -3.110762 0.209010 1.505962 -4.147713 1.434341 2.607161 -2.108197 1.608819 -9.250990 3.295610 -15.505627 11.848710 4.710183 10.912385 5.698802 2.791371 5.293059 0.000000 0.000000 0.000000 33.631434 -35.735955 -43.693925 42.461132 -49.462298 20.290306 84.506983 93.965306 -29.904384 0.000000 0.000000 0.000000 -7.125000 0.000000 0.000000 119.528591 -64.634924 145.763872 0.000000 0.000000 0.000000 -14.139857 -38.713963 63.239724 -39.085722 -47.518736 -17.762032 -90.696327 72.345550 28.018434 0.000000 0.000000 0.000000 7.125000 0.000000 0.000000 -23.978214 -57.803058 -33.438586
25.513162 12.479032 -0.923431 -380.240811 -88.688094 76.537500 0.000000 0.000000 0.000000 -21.884242 -9.368014 -4.388559 0.608352 4.992084 13.886021 2.666243 1.840746 30.438560 0.423469 4.174986 11.569879 0.000000 0.000000 0.000000 7.669117 27.627791 -86.546058 -23.798572 -19.650455 101.168636 -2.345310 1.685743 -28.534158 -1.167049 6.857411 -19.293641 -2.160668 -3.119647 0.295620 1.596363 -4.161702 1.504667 2.789380 -2.119734 1.651932 -9.305995 3.281392 -15.320088 11.916897 4.689619 10.761638 5.716920 2.779554 5.214633 0.000000 0.000000 0.000000 33.118122 -35.962354 -43.862004 41.746320 -49.071048 19.748727 85.767352 96.816590 -30.130657 0.000000 0.000000 0.000000 -7.125000 0.000000 0.000000 123.458403 -63.494749 150.095334 0.000000 0.000000 0.000000 -14.249556 -38.636966 62.995155 -39.119882 -47.539759 -17.787168 -92.389096 107.596774 44.771170 0.000000 0.000000 0.000000 7.125000 0.000000 0.000000 -25.287990 -59.315304 -35.017739
25.358129 12.487011 -0.935647 -374.366125 -88.491472 70.566798 0.000000 0.000000 0.000000 -21.685253 -8.750747 -4.871484 0.698193 5.341199 14.884403 2.956993 1.184284 32.280646 0.349646 3.797193 10.507082 0.000000 0.000000 0.000000 8.441344 27.207108 -85.357409 -23.620010 -19.682866 100.638126 -2.328715 1.859273 -28.385493 -1.340024 7.328299 -20.692253 -2.228273 -3.156933 0.567486 1.637250 -4.215455 1.464450 2.885736 -2.145064 1.469852 -9.302689 3.261271 -15.529498 12.043008 4.639265 11.022518 5.770667 2.768127 5.332945 0.000000 0.000000 0.000000 32.742001 -36.103911 -44.279691 41.071428 -48.691884 19.240268 85.725757 96.781756 -29.956797 0.000000 0.000000 0.000000 -7.125000 0.000000 0.000000 122.983962 -63.522484 149.725642 0.000000 0.000000 0.000000 -14.255694 -38.390818 63.214124 -38.480518 -47.143379 -17.317004 -92.784500 109.217364 44.681275 0.000000 0.000000 0.000000 7.125000 0.000000 0.000000 -25.667600 -59.659869 -35.483908
25.192992 12.514262 -0.956034 -372.152003 -88.414981 68.161170 0.000000 0.000000 0.000000 -21.490507 -8.267864 -5.816711 0.813155 5.752759 16.069094 3.269878 1.690482 33.861393 0.445937 4.247588 11.779417 0.000000 0.000000 0.000000 9.078683 27.031864 -83.742439 -23.415064 -19.718060 100.030188 -2.380762 2.247315 -28.614869 -1.400420 7.483913 -21.158096 -2.568330 -3.146842 0.747547 1.658872 -4.205796 1.539801 3.105547 -2.146149 1.472680 -9.066945 3.260856 -15.184992 11.818111 4.614081 10.730677 5.634563 2.741225 5.199914 0.000000 0.000000 0.000000 32.348102 -36.107027 -44.298487 40.624063 -48.435254 18.904837 85.930668 97.684937 -30.171996 0.000000 0.000000 0.000000 -7.125000 0.000000 0.000000 123.965162 -63.338380 150.641720 0.000000 0.000000 0.000000 -14.283908 -38.406454 63.355181 -38.169243 -46.946959 -17.089173 -93.421456 109.969883 44.640658 0.000000 0.000000 0.000000 7.125000 0.000000 0.000000 -26.162332 -60.239111 -36.057470
25.047047 12.516991 -0.975268 -371.141826 -88.268948 66.922011 0.000000 0.000000 0.000000 -21.259202 -7.460203 -6.861959 1.066290 6.561209 18.423046 3.342061 0.150234 34.665486 0.242645 3.164694 8.738096 0.000000 0.000000 0.000000 9.722996 26.918640 -82.408147 -23.256963 -19.743700 99.562056 -2.387009 2.349023 -28.629325 -1.146074 6.794273 -19.108566 -2.957043 -2.931563 1.220321 1.774239 -3.932142 1.102176 3.487974 -1.996871 0.773516 -8.976771 3.130600 -14.012437 12.014546 4.296947 10.806271 5.625853 2.569119 5.058723 0.000000 0.000000 0.000000 31.225891 -35.777704 -45.745453 40.080820 -48.117688 18.499383 85.925771 97.725366 -30.127961 0.000000 0.000000 0.000000 -7.125000 0.000000 0.000000 123.844939 -63.334150 150.548557 0.000000 0.000000 0.000000 -14.535195 -37.071588 62.917784 -37.810443 -46.717769 -16.827445 -93.557566 110.389753 44.762360 0.000000 0.000000 0.000000 7.125000 0.000000 0.000000 -26.101528 -60.389119 -35.940416
